# xmcd CD database file
#
# Track frame offsets:
#	150
#	21424
#	37290
#	54770
#	70644
#	88133
#	109602
#	131159
#	141598
#	161136
#	178057
#	196904
#	212372
#
# Disc length: 3049 seconds
#
# Revision: 2
# Processed by: cddbd v1.5PL3 Copyright (c) Steve Scherf et al.
# Submitted via: CDex 1.51
#
DISCID=bf0be70d
DTITLE=Mason Casey - Reefer Smokin' Man
DYEAR=2000
DGENRE=Blues
TTITLE0=Smellin' like whiskey
TTITLE1=Baby come back home
TTITLE2=Two trains comin'
TTITLE3=Slow down
TTITLE4=Out of the takin'
TTITLE5=Goin' back to Amsterdam (Reefer smokin' man)
TTITLE6=I'm ready
TTITLE7=Spaced out
TTITLE8=Startin' up from the bottom
TTITLE9=She changed the lock
TTITLE10=Livin' in the dream
TTITLE11=You say you don't love me
TTITLE12=Stone cold alone
EXTD=Label - Dixiefrog YEAR: 2000
EXTT0=
EXTT1=
EXTT2=
EXTT3=
EXTT4=
EXTT5=
EXTT6=
EXTT7=
EXTT8=
EXTT9=
EXTT10=
EXTT11=
EXTT12=
PLAYORDER=
